PathFileType	4	(X/Y/Z)	C:/Users/beibeiliu/ov580/test_trc/capture2\sequence.6_training_dense_right.trc
DataRate	CameraRate	NumFrames	NumMarkers	Units	OrigDataRate	OrigDataStartFrame	OrigNumFrames
120	120	14	19	mm	120	221	353
Frame#	Time	ThumbCMC			ThumbMCP			ThumbIP			ThumbTip			IndexMCP			IndexPIP			IndexTip			MiddleMCP			MiddlePIP			MiddleTip			RingMCP			RingPIP			RingTip			PinkyMCP			PinkyPIP			PinkyTip			BackHand1			BackHand2			BackHand3	
		X0	Y0	Z0	X1	Y1	Z1	X2	Y2	Z2	X3	Y3	Z3	X4	Y4	Z4	X5	Y5	Z5	X6	Y6	Z6	X7	Y7	Z7	X8	Y8	Z8	X9	Y9	Z9	X10	Y10	Z10	X11	Y11	Z11	X12	Y12	Z12	X13	Y13	Z13	X14	Y14	Z14	X15	Y15	Z15	X16	Y16	Z16	X17	Y17	Z17	X18	Y18	Z18	
220	1.83333	116.444	67.6264	-33.7793	96.7774	58.1636	-64.1105	88.966	49.5167	-90.217	99.0961	25.5887	-105.378	155.462	62.292	-99.7442	155.759	60.0412	-127.708	155.527	55.1305	-152.055	135.145	32.1267	-104.198	102.522	31.4118	-99.1655	106.372	34.3008	-64.2268	130.857	15.9712	-92.0452	99.9739	16.5703	-80.1354	109.647	30.1944	-50.8121	127.957	3.90271	-81.1695	102.285	8.96027	-64.8895	115.45	24.1697	-42.5927	162.378	17.6624	-46.7552	156.059	23.427	-13.6768	155.358	51.8128	-36.9324	
221	1.84167	118.426	65.6424	-34.5323	95.9829	60.2708	-61.9333	92.1098	50.3458	-86.9458	100.599	26.3554	-104.681	159.42	56.8587	-97.734	158.467	54.3793	-122.898	151.524	51.4338	-150.293	138.953	31.7191	-100.821	105.219	34.0181	-99.8208	107.532	37.1961	-64.9988	131.57	14.0776	-90.5891	100.541	18.171	-79.4008	109.344	31.518	-52.0727	128.182	-2.23311	-80.7666	104.424	9.68418	-69.0698	115.193	19.395	-40.022	163.643	17.3238	-43.2176	156.141	22.1594	-12.4649	157.98	49.6423	-31.4225	
222	1.85	120.846	65.1587	-34.4593	101.092	60.6547	-59.2282	95.5982	53.2038	-91.0243	100.856	31.6397	-104.703	162.348	57.1367	-95.892	159.848	52.1264	-124.7	145.175	48.5699	-145.843	142.811	35.0245	-99.8139	108.72	35.1566	-101.306	107.729	39.6063	-67.2099	130.605	17.1163	-93.4427	103.417	19.7216	-82.0084	112.604	30.6679	-49.624	126.173	1.03857	-82.5038	104.552	12.419	-66.7432	114.94	23.6329	-42.4282	164.44	14.2321	-43.3366	157.518	19.2528	-15.0738	158.432	50.6901	-33.0069	
223	1.85833	123.708	61.9857	-32.3137	104.456	61.1122	-63.1724	99.3178	54.179	-85.0488	106.319	29.5181	-106.45	165.071	57.4737	-92.4415	162.036	56.2046	-122.741	134.341	46.757	-139.392	143.426	36.0998	-102.095	111.411	34.0505	-100.34	110.722	38.8311	-67.6819	131.414	15.8761	-94.7261	104.937	23.5106	-82.2452	113.36	30.7025	-49.3951	133.086	1.70082	-80.0655	106.083	14.4537	-67.4387	120.221	21.1832	-38.9452	165.784	16.3646	-42.9272	160.221	17.8972	-13.6876	161.196	48.499	-27.9103	
224	1.86667	125.584	65.6149	-31.0534	108.279	60.5702	-61.9744	102.645	54.9104	-86.5919	106.716	33.8115	-104.589	167.879	55.0669	-92.2683	160.77	52.6542	-120.973	128.762	49.622	-131.317	147.432	37.3953	-100.852	113.64	34.1398	-100.467	113.002	41.2598	-66.1486	137.562	15.8476	-91.2785	105.595	23.5301	-82.8518	114.757	33.4746	-51.531	131.237	3.76114	-82.2575	107.482	16.2259	-69.5404	117.66	22.9703	-41.3382	165.737	13.1109	-45.3389	157.465	15.2559	-13.8466	162.923	45.4511	-27.2625	
225	1.875	127.634	66.6429	-32.6358	107.217	64.0634	-60.1683	104.075	56.7445	-88.4169	108.217	34.8683	-104.284	169.916	53.1422	-91.5792	160.481	55.6322	-122.803	129.432	48.6644	-127.465	147.385	37.1522	-101.09	116.457	40.8505	-101.875	113.769	42.7914	-67.5068	134.37	18.0729	-94.5967	109.155	27.9314	-85.2578	112.22	30.4501	-51.1712	131.267	8.23893	-83.5199	106.162	13.3225	-68.6696	121.041	25.064	-39.2529	164.827	16.7869	-46.0808	158.058	13.2443	-13.7615	164.105	47.181	-26.1077	
226	1.88333	128.392	64.8283	-29.1313	108.436	65.5218	-63.9507	103.119	59.4205	-87.392	108.66	35.8288	-106.672	169.411	57.4483	-89.7544	162.24	52.1536	-121.655	133.245	48.7998	-130.729	146.252	35.0501	-102.48	116.054	42.0403	-101.653	115.733	42.3677	-65.9963	133.743	21.0686	-94.6955	108.356	26.698	-85.4459	112.667	33.9959	-53.3516	133.067	5.62608	-81.8167	107.971	17.5812	-70.8793	117.163	25.9386	-41.3354	167.056	12.6217	-46.2311	157.806	17.2672	-12.0938	163.171	47.5503	-28.4709	
227	1.89167	129.072	64.3421	-29.1471	106.811	66.6781	-61.0125	104.207	57.0604	-87.674	107.497	38.1538	-101.294	170.576	53.5113	-93.467	162.782	53.7724	-124.231	137.407	50.0959	-136.967	145.586	35.0095	-102.204	115.091	41.2716	-101.476	114.493	42.1754	-65.7708	132.709	21.1053	-94.085	106.679	29.146	-83.7811	114.167	32.548	-48.4021	130.016	6.97467	-82.7189	106.628	18.6389	-67.9305	119.466	23.3173	-39.8516	165.54	13.5299	-45.848	158.811	16.3252	-11.6212	163.864	43.9146	-26.1761	
228	1.9	128.825	70.0164	-33.888	106.945	69.4394	-60.0526	104.455	58.5653	-87.5666	107.186	37.1355	-103.557	168.941	55.5111	-91.5625	168.958	56.4637	-120.305	147.975	55.5561	-146.951	146.146	35.4843	-99.2546	114.8	40.909	-101.994	113.269	46.4659	-65.0538	135.103	22.7924	-91.5771	104.371	27.9628	-80.4969	114.717	34.9729	-48.0342	128.806	3.96845	-81.9491	105.613	16.7185	-70.6714	118.706	28.1978	-40.7964	165.549	15.6749	-43.9419	159.534	17.889	-13.5226	165.556	49.5013	-30.8651	
229	1.90833	129.396	70.5383	-31.3105	107.919	69.8127	-57.9188	102.843	63.0778	-87.0921	104.734	41.8634	-102.404	170.669	58.3347	-92.3648	171.903	59.4816	-119.478	162.36	55.0764	-150.464	146.476	41.9371	-99.218	111.74	42.9043	-99.5225	114.503	47.4744	-64.2068	131.385	25.6347	-94.6074	104.312	31.6216	-80.1321	111.618	34.6745	-50.184	125.238	8.32795	-83.7016	107.255	23.4137	-67.5377	121.335	28.0163	-39.8801	164.753	13.9495	-48.581	159.248	18.2931	-12.1014	166.166	49.5541	-29.6909	
230	1.91667	132.275	66.2533	-33.7594	109.8	67.3408	-61.0828	102.548	61.8396	-85.9188	107.142	37.5591	-101.602	171.06	60.1712	-92.6603	172.382	59.6604	-117.112	173.832	60.0049	-143.959	146.012	37.7364	-100.054	112.167	45.1615	-100.593	111.263	48.0705	-67.298	133.601	25.5323	-92.4511	104.44	31.4607	-79.1249	116.122	37.4967	-48.5221	125.8	10.045	-83.1577	105.692	21.3058	-65.8948	118.722	26.8211	-41.9335	164.242	12.26	-44.906	159.495	13.8242	-12.3879	164.732	48.7955	-29.2956	
231	1.925	131.236	69.3053	-32.1295	109.245	69.2813	-61.89	101.597	64.7786	-86.7758	107.071	38.7966	-101.936	171.39	61.573	-92.684	175.235	63.4565	-120.472	180.936	57.9243	-143.242	144.628	35.8392	-100.124	112.21	42.6951	-99.4631	111.164	43.8031	-65.839	133.445	24.096	-92.0948	106.232	30.4357	-82.6592	112.776	33.3943	-49.8371	127.454	4.38539	-83.0104	105.89	19.5067	-65.1321	119.894	29.5503	-41.0048	165.538	13.5151	-45.8305	161.905	13.8395	-15.8123	166.537	44.4687	-31.4474	
232	1.93333	132.756	65.5245	-29.7412	110.718	66.3876	-58.5063	104.479	61.5885	-88.9142	106.227	39.0759	-105.184	173.194	58.5293	-95.0385	176.154	60.5257	-118.707	184.56	57.9431	-138.965	143.387	35.9505	-102.327	114.269	40.792	-101.559	114.426	43.6002	-61.0121	131.734	19.6755	-93.7233	106.169	31.8003	-79.4051	115.399	36.5886	-49.0285	128.782	7.37281	-83.4229	107.181	21.4269	-66.6479	119.468	27.915	-43.2404	166.18	10.9729	-48.6011	160.656	11.949	-11.7087	166.835	48.473	-28.8825	
233	1.94167	133.67	66.1881	-30.7546	111.807	68.8138	-60.5339	106.595	61.832	-90.0775	106.819	42.587	-106.593	172.909	59.5035	-91.5213	179.791	61.4459	-118.652	186.207	58.4599	-136.583	148.124	40.2524	-101.16	116.113	42.9862	-101.502	114.683	46.6376	-62.8173	135.144	21.0929	-93.0255	107.321	27.1631	-82.1153	115.731	34.0065	-47.8607	131.849	5.03742	-81.5256	107.928	19.7905	-65.7797	120.473	25.2867	-40.4883	167.56	11.6067	-44.04	163.851	14.6943	-15.8492	167.698	44.2181	-29.5177	
